<svg xmlns="http://www.w3.org/2000/svg" xmlns:xlink="http://www.w3.org/1999/xlink" width="170" zoomAndPan="magnify" viewBox="0 0 127.5 44.999999" height="60" preserveAspectRatio="xMidYMid meet" version="1.0"><defs><g/><clipPath id="1c2bc5a9d7"><path d="M 102 12 L 115 12 L 115 25 L 102 25 Z M 102 12 " clip-rule="nonzero"/></clipPath><clipPath id="0c4f95bba1"><path d="M 99.441406 14.210938 L 108.21875 6.097656 L 120.390625 19.261719 L 111.609375 27.375 Z M 99.441406 14.210938 " clip-rule="nonzero"/></clipPath><clipPath id="27a519f0d2"><path d="M 99.441406 14.210938 L 108.21875 6.097656 L 120.390625 19.261719 L 111.609375 27.375 Z M 99.441406 14.210938 " clip-rule="nonzero"/></clipPath><clipPath id="af32143005"><path d="M 108 6 L 121 6 L 121 19 L 108 19 Z M 108 6 " clip-rule="nonzero"/></clipPath><clipPath id="4a0d10d0ce"><path d="M 105.839844 8.296875 L 114.617188 0.183594 L 126.785156 13.351562 L 118.007812 21.464844 Z M 105.839844 8.296875 " clip-rule="nonzero"/></clipPath><clipPath id="057ea80603"><path d="M 105.839844 8.296875 L 114.617188 0.183594 L 126.785156 13.351562 L 118.007812 21.464844 Z M 105.839844 8.296875 " clip-rule="nonzero"/></clipPath></defs><g clip-path="url(#1c2bc5a9d7)"><g clip-path="url(#0c4f95bba1)"><g clip-path="url(#27a519f0d2)"><path fill="#18cb96" d="M 114.546875 12.734375 L 103.746094 12.253906 C 101.660156 12.164062 101.304688 16.226562 103.777344 16.292969 L 110.5 16.476562 L 109.984375 23.238281 C 109.828125 25.296875 113.847656 25.515625 113.960938 23.421875 Z M 114.546875 12.734375 " fill-opacity="1" fill-rule="nonzero"/></g></g></g><g clip-path="url(#af32143005)"><g clip-path="url(#4a0d10d0ce)"><g clip-path="url(#057ea80603)"><path fill="#18cb96" d="M 120.941406 6.824219 L 110.140625 6.34375 C 108.054688 6.25 107.703125 10.316406 110.175781 10.382812 L 116.894531 10.5625 L 116.382812 17.328125 C 116.226562 19.386719 120.242188 19.605469 120.359375 17.511719 Z M 120.941406 6.824219 " fill-opacity="1" fill-rule="nonzero"/></g></g></g><g fill="#373643" fill-opacity="1"><g transform="translate(-0.603142, 36.028456)"><g><path d="M 9.203125 -2.859375 C 9.828125 -2.859375 10.4375 -2.941406 11.03125 -3.109375 C 11.632812 -3.285156 12.191406 -3.578125 12.703125 -3.984375 C 13.203125 -4.441406 13.6875 -4.648438 14.15625 -4.609375 C 14.625 -4.578125 15.015625 -4.40625 15.328125 -4.09375 C 15.640625 -3.789062 15.796875 -3.40625 15.796875 -2.9375 C 15.796875 -2.476562 15.570312 -2.035156 15.125 -1.609375 C 14.375 -0.878906 13.484375 -0.367188 12.453125 -0.078125 C 11.421875 0.210938 10.367188 0.347656 9.296875 0.328125 C 7.617188 0.328125 6.140625 -0.015625 4.859375 -0.703125 C 3.585938 -1.390625 2.59375 -2.34375 1.875 -3.5625 C 1.15625 -4.789062 0.796875 -6.207031 0.796875 -7.8125 C 0.796875 -9.570312 1.140625 -11.113281 1.828125 -12.4375 C 2.515625 -13.769531 3.484375 -14.8125 4.734375 -15.5625 C 5.992188 -16.320312 7.484375 -16.703125 9.203125 -16.703125 C 10.921875 -16.703125 12.378906 -16.351562 13.578125 -15.65625 C 14.773438 -14.957031 15.691406 -13.976562 16.328125 -12.71875 C 16.960938 -11.46875 17.28125 -10.003906 17.28125 -8.328125 C 17.28125 -7.796875 17.171875 -7.34375 16.953125 -6.96875 C 16.742188 -6.59375 16.175781 -6.40625 15.25 -6.40625 L 4.53125 -6.40625 C 4.832031 -5.351562 5.398438 -4.5 6.234375 -3.84375 C 7.078125 -3.1875 8.066406 -2.859375 9.203125 -2.859375 Z M 9.234375 -13.515625 C 7.992188 -13.515625 6.953125 -13.117188 6.109375 -12.328125 C 5.273438 -11.546875 4.738281 -10.523438 4.5 -9.265625 L 13.859375 -9.265625 C 13.753906 -10.523438 13.335938 -11.546875 12.609375 -12.328125 C 11.878906 -13.117188 10.753906 -13.515625 9.234375 -13.515625 Z M 9.234375 -13.515625 "/></g></g></g><g fill="#373643" fill-opacity="1"><g transform="translate(18.082552, 36.028456)"><g><path d="M 4.796875 -1.609375 C 4.796875 -1.179688 4.617188 -0.804688 4.265625 -0.484375 C 3.910156 -0.160156 3.472656 0 2.953125 0 C 2.421875 0 1.984375 -0.160156 1.640625 -0.484375 C 1.296875 -0.804688 1.125 -1.179688 1.125 -1.609375 L 1.125 -19.203125 C 1.125 -19.628906 1.296875 -20.003906 1.640625 -20.328125 C 1.984375 -20.648438 2.421875 -20.8125 2.953125 -20.8125 C 3.472656 -20.8125 3.910156 -20.648438 4.265625 -20.328125 C 4.617188 -20.003906 4.796875 -19.628906 4.796875 -19.203125 Z M 4.796875 -1.609375 "/></g></g></g><g fill="#373643" fill-opacity="1"><g transform="translate(23.356793, 36.028456)"><g><path d="M 9.203125 -2.859375 C 9.828125 -2.859375 10.4375 -2.941406 11.03125 -3.109375 C 11.632812 -3.285156 12.191406 -3.578125 12.703125 -3.984375 C 13.203125 -4.441406 13.6875 -4.648438 14.15625 -4.609375 C 14.625 -4.578125 15.015625 -4.40625 15.328125 -4.09375 C 15.640625 -3.789062 15.796875 -3.40625 15.796875 -2.9375 C 15.796875 -2.476562 15.570312 -2.035156 15.125 -1.609375 C 14.375 -0.878906 13.484375 -0.367188 12.453125 -0.078125 C 11.421875 0.210938 10.367188 0.347656 9.296875 0.328125 C 7.617188 0.328125 6.140625 -0.015625 4.859375 -0.703125 C 3.585938 -1.390625 2.59375 -2.34375 1.875 -3.5625 C 1.15625 -4.789062 0.796875 -6.207031 0.796875 -7.8125 C 0.796875 -9.570312 1.140625 -11.113281 1.828125 -12.4375 C 2.515625 -13.769531 3.484375 -14.8125 4.734375 -15.5625 C 5.992188 -16.320312 7.484375 -16.703125 9.203125 -16.703125 C 10.921875 -16.703125 12.378906 -16.351562 13.578125 -15.65625 C 14.773438 -14.957031 15.691406 -13.976562 16.328125 -12.71875 C 16.960938 -11.46875 17.28125 -10.003906 17.28125 -8.328125 C 17.28125 -7.796875 17.171875 -7.34375 16.953125 -6.96875 C 16.742188 -6.59375 16.175781 -6.40625 15.25 -6.40625 L 4.53125 -6.40625 C 4.832031 -5.351562 5.398438 -4.5 6.234375 -3.84375 C 7.078125 -3.1875 8.066406 -2.859375 9.203125 -2.859375 Z M 9.234375 -13.515625 C 7.992188 -13.515625 6.953125 -13.117188 6.109375 -12.328125 C 5.273438 -11.546875 4.738281 -10.523438 4.5 -9.265625 L 13.859375 -9.265625 C 13.753906 -10.523438 13.335938 -11.546875 12.609375 -12.328125 C 11.878906 -13.117188 10.753906 -13.515625 9.234375 -13.515625 Z M 9.234375 -13.515625 "/></g></g></g><g fill="#373643" fill-opacity="1"><g transform="translate(42.042487, 36.028456)"><g><path d="M 0.03125 -13.96875 C -0.113281 -14.394531 -0.117188 -14.789062 0.015625 -15.15625 C 0.148438 -15.519531 0.382812 -15.8125 0.71875 -16.03125 C 1.050781 -16.257812 1.398438 -16.375 1.765625 -16.375 C 2.148438 -16.375 2.488281 -16.269531 2.78125 -16.0625 C 3.070312 -15.863281 3.289062 -15.59375 3.4375 -15.25 L 8.359375 -5.28125 L 13.28125 -15.28125 C 13.476562 -15.664062 13.734375 -15.941406 14.046875 -16.109375 C 14.359375 -16.285156 14.6875 -16.375 15.03125 -16.375 C 15.414062 -16.375 15.757812 -16.269531 16.0625 -16.0625 C 16.375 -15.863281 16.585938 -15.585938 16.703125 -15.234375 C 16.828125 -14.878906 16.769531 -14.46875 16.53125 -14 L 9.96875 -0.671875 C 9.820312 -0.390625 9.597656 -0.15625 9.296875 0.03125 C 8.992188 0.226562 8.660156 0.328125 8.296875 0.328125 C 7.585938 0.328125 7.050781 0.015625 6.6875 -0.609375 Z M 0.03125 -13.96875 "/></g></g></g><g fill="#373643" fill-opacity="1"><g transform="translate(58.669829, 36.028456)"><g><path d="M 14.953125 -16.375 C 15.515625 -16.375 15.960938 -16.21875 16.296875 -15.90625 C 16.628906 -15.59375 16.796875 -15.191406 16.796875 -14.703125 L 16.796875 -1.671875 C 16.796875 -1.179688 16.628906 -0.78125 16.296875 -0.46875 C 15.960938 -0.15625 15.515625 0 14.953125 0 C 14.421875 0 14.003906 -0.117188 13.703125 -0.359375 C 13.398438 -0.609375 13.21875 -0.9375 13.15625 -1.34375 C 12.425781 -0.769531 11.609375 -0.347656 10.703125 -0.078125 C 9.804688 0.191406 8.953125 0.328125 8.140625 0.328125 C 6.597656 0.328125 5.257812 -0.0234375 4.125 -0.734375 C 3 -1.441406 2.132812 -2.4375 1.53125 -3.71875 C 0.9375 -5.007812 0.640625 -6.515625 0.640625 -8.234375 C 0.640625 -9.910156 0.972656 -11.378906 1.640625 -12.640625 C 2.304688 -13.910156 3.234375 -14.90625 4.421875 -15.625 C 5.609375 -16.34375 6.988281 -16.703125 8.5625 -16.703125 C 9.25 -16.703125 10.007812 -16.570312 10.84375 -16.3125 C 11.675781 -16.050781 12.445312 -15.644531 13.15625 -15.09375 C 13.238281 -15.476562 13.429688 -15.785156 13.734375 -16.015625 C 14.035156 -16.253906 14.441406 -16.375 14.953125 -16.375 Z M 8.53125 -2.921875 C 9.46875 -2.921875 10.375 -3.128906 11.25 -3.546875 C 12.132812 -3.972656 12.757812 -4.59375 13.125 -5.40625 L 13.125 -10.96875 C 12.71875 -11.757812 12.101562 -12.367188 11.28125 -12.796875 C 10.46875 -13.234375 9.644531 -13.453125 8.8125 -13.453125 C 7.457031 -13.453125 6.367188 -12.957031 5.546875 -11.96875 C 4.722656 -10.976562 4.3125 -9.722656 4.3125 -8.203125 C 4.3125 -6.617188 4.695312 -5.34375 5.46875 -4.375 C 6.238281 -3.40625 7.257812 -2.921875 8.53125 -2.921875 Z M 8.53125 -2.921875 "/></g></g></g><g fill="#373643" fill-opacity="1"><g transform="translate(77.259036, 36.028456)"><g><path d="M 8.84375 -3.0625 C 9.34375 -3.332031 9.789062 -3.425781 10.1875 -3.34375 C 10.582031 -3.257812 10.898438 -3.070312 11.140625 -2.78125 C 11.390625 -2.488281 11.515625 -2.148438 11.515625 -1.765625 C 11.515625 -1.484375 11.425781 -1.203125 11.25 -0.921875 C 11.082031 -0.648438 10.816406 -0.414062 10.453125 -0.21875 C 9.984375 0.03125 9.554688 0.179688 9.171875 0.234375 C 8.785156 0.296875 8.332031 0.328125 7.8125 0.328125 C 6.425781 0.328125 5.351562 0.0351562 4.59375 -0.546875 C 3.84375 -1.128906 3.328125 -1.878906 3.046875 -2.796875 C 2.773438 -3.722656 2.640625 -4.703125 2.640625 -5.734375 L 2.640625 -13.3125 L 1.421875 -13.3125 C 0.816406 -13.3125 0.367188 -13.472656 0.078125 -13.796875 C -0.210938 -14.117188 -0.359375 -14.460938 -0.359375 -14.828125 C -0.359375 -15.210938 -0.207031 -15.566406 0.09375 -15.890625 C 0.394531 -16.210938 0.835938 -16.375 1.421875 -16.375 L 2.640625 -16.375 L 2.640625 -19.140625 C 2.640625 -19.703125 2.820312 -20.117188 3.1875 -20.390625 C 3.550781 -20.671875 3.96875 -20.8125 4.4375 -20.8125 C 4.882812 -20.8125 5.300781 -20.671875 5.6875 -20.390625 C 6.082031 -20.117188 6.28125 -19.703125 6.28125 -19.140625 L 6.28125 -16.375 L 8.78125 -16.375 C 9.34375 -16.375 9.769531 -16.210938 10.0625 -15.890625 C 10.363281 -15.566406 10.515625 -15.210938 10.515625 -14.828125 C 10.515625 -14.441406 10.363281 -14.09375 10.0625 -13.78125 C 9.769531 -13.46875 9.34375 -13.3125 8.78125 -13.3125 L 6.28125 -13.3125 L 6.28125 -5.734375 C 6.28125 -5.253906 6.3125 -4.796875 6.375 -4.359375 C 6.4375 -3.921875 6.578125 -3.554688 6.796875 -3.265625 C 7.023438 -2.972656 7.363281 -2.828125 7.8125 -2.828125 C 7.988281 -2.828125 8.175781 -2.851562 8.375 -2.90625 C 8.582031 -2.957031 8.738281 -3.007812 8.84375 -3.0625 Z M 8.84375 -3.0625 "/></g></g></g><g fill="#373643" fill-opacity="1"><g transform="translate(88.41888, 36.028456)"><g><path d="M 9.203125 -2.859375 C 9.828125 -2.859375 10.4375 -2.941406 11.03125 -3.109375 C 11.632812 -3.285156 12.191406 -3.578125 12.703125 -3.984375 C 13.203125 -4.441406 13.6875 -4.648438 14.15625 -4.609375 C 14.625 -4.578125 15.015625 -4.40625 15.328125 -4.09375 C 15.640625 -3.789062 15.796875 -3.40625 15.796875 -2.9375 C 15.796875 -2.476562 15.570312 -2.035156 15.125 -1.609375 C 14.375 -0.878906 13.484375 -0.367188 12.453125 -0.078125 C 11.421875 0.210938 10.367188 0.347656 9.296875 0.328125 C 7.617188 0.328125 6.140625 -0.015625 4.859375 -0.703125 C 3.585938 -1.390625 2.59375 -2.34375 1.875 -3.5625 C 1.15625 -4.789062 0.796875 -6.207031 0.796875 -7.8125 C 0.796875 -9.570312 1.140625 -11.113281 1.828125 -12.4375 C 2.515625 -13.769531 3.484375 -14.8125 4.734375 -15.5625 C 5.992188 -16.320312 7.484375 -16.703125 9.203125 -16.703125 C 10.921875 -16.703125 12.378906 -16.351562 13.578125 -15.65625 C 14.773438 -14.957031 15.691406 -13.976562 16.328125 -12.71875 C 16.960938 -11.46875 17.28125 -10.003906 17.28125 -8.328125 C 17.28125 -7.796875 17.171875 -7.34375 16.953125 -6.96875 C 16.742188 -6.59375 16.175781 -6.40625 15.25 -6.40625 L 4.53125 -6.40625 C 4.832031 -5.351562 5.398438 -4.5 6.234375 -3.84375 C 7.078125 -3.1875 8.066406 -2.859375 9.203125 -2.859375 Z M 9.234375 -13.515625 C 7.992188 -13.515625 6.953125 -13.117188 6.109375 -12.328125 C 5.273438 -11.546875 4.738281 -10.523438 4.5 -9.265625 L 13.859375 -9.265625 C 13.753906 -10.523438 13.335938 -11.546875 12.609375 -12.328125 C 11.878906 -13.117188 10.753906 -13.515625 9.234375 -13.515625 Z M 9.234375 -13.515625 "/></g></g></g></svg>