<svg xmlns="http://www.w3.org/2000/svg" xmlns:xlink="http://www.w3.org/1999/xlink" width="500" zoomAndPan="magnify" viewBox="0 0 375 374.999991" height="500" preserveAspectRatio="xMidYMid meet" version="1.0"><defs><g/><clipPath id="77cdc26741"><path d="M 302 136 L 333 136 L 333 168 L 302 168 Z M 302 136 " clip-rule="nonzero"/></clipPath><clipPath id="99abd564b5"><path d="M 296.613281 141.625 L 318.09375 121.769531 L 347.617188 153.714844 L 326.136719 173.566406 Z M 296.613281 141.625 " clip-rule="nonzero"/></clipPath><clipPath id="0e98aa609b"><path d="M 296.613281 141.625 L 318.09375 121.769531 L 347.617188 153.714844 L 326.136719 173.566406 Z M 296.613281 141.625 " clip-rule="nonzero"/></clipPath><clipPath id="930c48ffad"><path d="M 318 122 L 349 122 L 349 154 L 318 154 Z M 318 122 " clip-rule="nonzero"/></clipPath><clipPath id="204ce51dd6"><path d="M 311.925781 127.46875 L 333.40625 107.617188 L 362.933594 139.558594 L 341.453125 159.414062 Z M 311.925781 127.46875 " clip-rule="nonzero"/></clipPath><clipPath id="6518141896"><path d="M 311.925781 127.46875 L 333.40625 107.617188 L 362.933594 139.558594 L 341.453125 159.414062 Z M 311.925781 127.46875 " clip-rule="nonzero"/></clipPath></defs><rect x="-37.5" width="450" fill="#ffffff" y="-37.499999" height="449.999989" fill-opacity="1"/><rect x="-37.5" width="450" fill="#373643" y="-37.499999" height="449.999989" fill-opacity="1"/><g clip-path="url(#77cdc26741)"><g clip-path="url(#99abd564b5)"><g clip-path="url(#0e98aa609b)"><path fill="#18cb96" d="M 332.796875 138.09375 L 306.921875 136.941406 C 301.925781 136.71875 301.078125 146.457031 307 146.617188 L 323.101562 147.050781 L 321.871094 163.253906 C 321.496094 168.1875 331.117188 168.707031 331.394531 163.695312 Z M 332.796875 138.09375 " fill-opacity="1" fill-rule="nonzero"/></g></g></g><g clip-path="url(#930c48ffad)"><g clip-path="url(#204ce51dd6)"><g clip-path="url(#6518141896)"><path fill="#18cb96" d="M 348.109375 123.9375 L 322.234375 122.789062 C 317.238281 122.566406 316.394531 132.300781 322.316406 132.460938 L 338.414062 132.898438 L 337.1875 149.097656 C 336.8125 154.03125 346.433594 154.550781 346.707031 149.539062 Z M 348.109375 123.9375 " fill-opacity="1" fill-rule="nonzero"/></g></g></g><g fill="#ffffff" fill-opacity="1"><g transform="translate(57.099999, 193.851373)"><g><path d="M 22.015625 -6.859375 C 23.503906 -6.859375 24.96875 -7.0625 26.40625 -7.46875 C 27.84375 -7.875 29.179688 -8.566406 30.421875 -9.546875 C 31.597656 -10.628906 32.75 -11.128906 33.875 -11.046875 C 35.007812 -10.972656 35.945312 -10.5625 36.6875 -9.8125 C 37.4375 -9.070312 37.8125 -8.148438 37.8125 -7.046875 C 37.8125 -5.941406 37.269531 -4.875 36.1875 -3.84375 C 34.394531 -2.101562 32.265625 -0.882812 29.796875 -0.1875 C 27.335938 0.5 24.820312 0.816406 22.25 0.765625 C 18.25 0.765625 14.71875 -0.0507812 11.65625 -1.6875 C 8.601562 -3.332031 6.21875 -5.617188 4.5 -8.546875 C 2.78125 -11.472656 1.921875 -14.863281 1.921875 -18.71875 C 1.921875 -22.925781 2.742188 -26.617188 4.390625 -29.796875 C 6.035156 -32.984375 8.359375 -35.472656 11.359375 -37.265625 C 14.359375 -39.066406 17.910156 -39.96875 22.015625 -39.96875 C 26.128906 -39.96875 29.625 -39.128906 32.5 -37.453125 C 35.375 -35.785156 37.566406 -33.453125 39.078125 -30.453125 C 40.585938 -27.453125 41.34375 -23.945312 41.34375 -19.9375 C 41.34375 -18.65625 41.085938 -17.566406 40.578125 -16.671875 C 40.066406 -15.773438 38.707031 -15.328125 36.5 -15.328125 L 10.859375 -15.328125 C 11.578125 -12.804688 12.9375 -10.765625 14.9375 -9.203125 C 16.9375 -7.640625 19.296875 -6.859375 22.015625 -6.859375 Z M 22.09375 -32.34375 C 19.125 -32.34375 16.632812 -31.40625 14.625 -29.53125 C 12.625 -27.65625 11.34375 -25.203125 10.78125 -22.171875 L 33.1875 -22.171875 C 32.925781 -25.203125 31.921875 -27.65625 30.171875 -29.53125 C 28.429688 -31.40625 25.738281 -32.34375 22.09375 -32.34375 Z M 22.09375 -32.34375 "/></g></g></g><g fill="#ffffff" fill-opacity="1"><g transform="translate(101.835785, 193.851373)"><g><path d="M 11.46875 -3.84375 C 11.46875 -2.820312 11.046875 -1.925781 10.203125 -1.15625 C 9.359375 -0.382812 8.316406 0 7.078125 0 C 5.796875 0 4.742188 -0.382812 3.921875 -1.15625 C 3.097656 -1.925781 2.6875 -2.820312 2.6875 -3.84375 L 2.6875 -45.96875 C 2.6875 -47 3.097656 -47.894531 3.921875 -48.65625 C 4.742188 -49.425781 5.796875 -49.8125 7.078125 -49.8125 C 8.316406 -49.8125 9.359375 -49.425781 10.203125 -48.65625 C 11.046875 -47.894531 11.46875 -47 11.46875 -45.96875 Z M 11.46875 -3.84375 "/></g></g></g><g fill="#ffffff" fill-opacity="1"><g transform="translate(114.462947, 193.851373)"><g><path d="M 22.015625 -6.859375 C 23.503906 -6.859375 24.96875 -7.0625 26.40625 -7.46875 C 27.84375 -7.875 29.179688 -8.566406 30.421875 -9.546875 C 31.597656 -10.628906 32.75 -11.128906 33.875 -11.046875 C 35.007812 -10.972656 35.945312 -10.5625 36.6875 -9.8125 C 37.4375 -9.070312 37.8125 -8.148438 37.8125 -7.046875 C 37.8125 -5.941406 37.269531 -4.875 36.1875 -3.84375 C 34.394531 -2.101562 32.265625 -0.882812 29.796875 -0.1875 C 27.335938 0.5 24.820312 0.816406 22.25 0.765625 C 18.25 0.765625 14.71875 -0.0507812 11.65625 -1.6875 C 8.601562 -3.332031 6.21875 -5.617188 4.5 -8.546875 C 2.78125 -11.472656 1.921875 -14.863281 1.921875 -18.71875 C 1.921875 -22.925781 2.742188 -26.617188 4.390625 -29.796875 C 6.035156 -32.984375 8.359375 -35.472656 11.359375 -37.265625 C 14.359375 -39.066406 17.910156 -39.96875 22.015625 -39.96875 C 26.128906 -39.96875 29.625 -39.128906 32.5 -37.453125 C 35.375 -35.785156 37.566406 -33.453125 39.078125 -30.453125 C 40.585938 -27.453125 41.34375 -23.945312 41.34375 -19.9375 C 41.34375 -18.65625 41.085938 -17.566406 40.578125 -16.671875 C 40.066406 -15.773438 38.707031 -15.328125 36.5 -15.328125 L 10.859375 -15.328125 C 11.578125 -12.804688 12.9375 -10.765625 14.9375 -9.203125 C 16.9375 -7.640625 19.296875 -6.859375 22.015625 -6.859375 Z M 22.09375 -32.34375 C 19.125 -32.34375 16.632812 -31.40625 14.625 -29.53125 C 12.625 -27.65625 11.34375 -25.203125 10.78125 -22.171875 L 33.1875 -22.171875 C 32.925781 -25.203125 31.921875 -27.65625 30.171875 -29.53125 C 28.429688 -31.40625 25.738281 -32.34375 22.09375 -32.34375 Z M 22.09375 -32.34375 "/></g></g></g><g fill="#ffffff" fill-opacity="1"><g transform="translate(159.198732, 193.851373)"><g><path d="M 0.078125 -33.421875 C -0.285156 -34.441406 -0.300781 -35.390625 0.03125 -36.265625 C 0.363281 -37.140625 0.925781 -37.84375 1.71875 -38.375 C 2.519531 -38.914062 3.359375 -39.1875 4.234375 -39.1875 C 5.160156 -39.1875 5.96875 -38.941406 6.65625 -38.453125 C 7.351562 -37.972656 7.878906 -37.320312 8.234375 -36.5 L 20.015625 -12.625 L 31.796875 -36.578125 C 32.265625 -37.503906 32.867188 -38.171875 33.609375 -38.578125 C 34.359375 -38.984375 35.140625 -39.1875 35.953125 -39.1875 C 36.878906 -39.1875 37.710938 -38.941406 38.453125 -38.453125 C 39.203125 -37.972656 39.71875 -37.304688 40 -36.453125 C 40.28125 -35.609375 40.140625 -34.625 39.578125 -33.5 L 23.875 -1.609375 C 23.507812 -0.941406 22.96875 -0.378906 22.25 0.078125 C 21.53125 0.535156 20.734375 0.765625 19.859375 0.765625 C 18.171875 0.765625 16.890625 0.0195312 16.015625 -1.46875 Z M 0.078125 -33.421875 "/></g></g></g><g fill="#ffffff" fill-opacity="1"><g transform="translate(199.006577, 193.851373)"><g><path d="M 35.8125 -39.1875 C 37.144531 -39.1875 38.207031 -38.8125 39 -38.0625 C 39.789062 -37.320312 40.1875 -36.363281 40.1875 -35.1875 L 40.1875 -4 C 40.1875 -2.820312 39.789062 -1.859375 39 -1.109375 C 38.207031 -0.367188 37.144531 0 35.8125 0 C 34.519531 0 33.515625 -0.289062 32.796875 -0.875 C 32.078125 -1.46875 31.644531 -2.253906 31.5 -3.234375 C 29.75 -1.847656 27.796875 -0.832031 25.640625 -0.1875 C 23.484375 0.445312 21.429688 0.765625 19.484375 0.765625 C 15.785156 0.765625 12.585938 -0.078125 9.890625 -1.765625 C 7.203125 -3.460938 5.140625 -5.847656 3.703125 -8.921875 C 2.265625 -12.003906 1.546875 -15.601562 1.546875 -19.71875 C 1.546875 -23.71875 2.335938 -27.226562 3.921875 -30.25 C 5.515625 -33.28125 7.734375 -35.65625 10.578125 -37.375 C 13.429688 -39.101562 16.734375 -39.96875 20.484375 -39.96875 C 22.128906 -39.96875 23.953125 -39.65625 25.953125 -39.03125 C 27.953125 -38.414062 29.800781 -37.441406 31.5 -36.109375 C 31.695312 -37.035156 32.15625 -37.78125 32.875 -38.34375 C 33.59375 -38.90625 34.570312 -39.1875 35.8125 -39.1875 Z M 20.40625 -7 C 22.664062 -7 24.847656 -7.5 26.953125 -8.5 C 29.054688 -9.507812 30.546875 -10.988281 31.421875 -12.9375 L 31.421875 -26.25 C 30.441406 -28.15625 28.972656 -29.617188 27.015625 -30.640625 C 25.066406 -31.671875 23.09375 -32.1875 21.09375 -32.1875 C 17.863281 -32.1875 15.257812 -31.003906 13.28125 -28.640625 C 11.300781 -26.285156 10.3125 -23.285156 10.3125 -19.640625 C 10.3125 -15.835938 11.234375 -12.78125 13.078125 -10.46875 C 14.929688 -8.15625 17.375 -7 20.40625 -7 Z M 20.40625 -7 "/></g></g></g><g fill="#ffffff" fill-opacity="1"><g transform="translate(243.511361, 193.851373)"><g><path d="M 21.171875 -7.3125 C 22.359375 -7.976562 23.425781 -8.207031 24.375 -8 C 25.320312 -7.800781 26.085938 -7.351562 26.671875 -6.65625 C 27.265625 -5.96875 27.5625 -5.160156 27.5625 -4.234375 C 27.5625 -3.566406 27.351562 -2.898438 26.9375 -2.234375 C 26.53125 -1.566406 25.894531 -1 25.03125 -0.53125 C 23.894531 0.0820312 22.863281 0.453125 21.9375 0.578125 C 21.019531 0.703125 19.945312 0.765625 18.71875 0.765625 C 15.375 0.765625 12.800781 0.0703125 11 -1.3125 C 9.207031 -2.695312 7.976562 -4.492188 7.3125 -6.703125 C 6.644531 -8.910156 6.3125 -11.242188 6.3125 -13.703125 L 6.3125 -31.875 L 3.390625 -31.875 C 1.953125 -31.875 0.882812 -32.257812 0.1875 -33.03125 C -0.5 -33.800781 -0.84375 -34.625 -0.84375 -35.5 C -0.84375 -36.425781 -0.484375 -37.269531 0.234375 -38.03125 C 0.953125 -38.800781 2.003906 -39.1875 3.390625 -39.1875 L 6.3125 -39.1875 L 6.3125 -45.8125 C 6.3125 -47.144531 6.75 -48.144531 7.625 -48.8125 C 8.5 -49.476562 9.5 -49.8125 10.625 -49.8125 C 11.707031 -49.8125 12.707031 -49.476562 13.625 -48.8125 C 14.550781 -48.144531 15.015625 -47.144531 15.015625 -45.8125 L 15.015625 -39.1875 L 21.015625 -39.1875 C 22.347656 -39.1875 23.375 -38.800781 24.09375 -38.03125 C 24.8125 -37.269531 25.171875 -36.425781 25.171875 -35.5 C 25.171875 -34.570312 24.8125 -33.734375 24.09375 -32.984375 C 23.375 -32.242188 22.347656 -31.875 21.015625 -31.875 L 15.015625 -31.875 L 15.015625 -13.703125 C 15.015625 -12.578125 15.09375 -11.488281 15.25 -10.4375 C 15.40625 -9.382812 15.75 -8.507812 16.28125 -7.8125 C 16.820312 -7.125 17.632812 -6.78125 18.71875 -6.78125 C 19.125 -6.78125 19.570312 -6.84375 20.0625 -6.96875 C 20.550781 -7.09375 20.921875 -7.207031 21.171875 -7.3125 Z M 21.171875 -7.3125 "/></g></g></g><g fill="#ffffff" fill-opacity="1"><g transform="translate(270.229361, 193.851373)"><g><path d="M 22.015625 -6.859375 C 23.503906 -6.859375 24.96875 -7.0625 26.40625 -7.46875 C 27.84375 -7.875 29.179688 -8.566406 30.421875 -9.546875 C 31.597656 -10.628906 32.75 -11.128906 33.875 -11.046875 C 35.007812 -10.972656 35.945312 -10.5625 36.6875 -9.8125 C 37.4375 -9.070312 37.8125 -8.148438 37.8125 -7.046875 C 37.8125 -5.941406 37.269531 -4.875 36.1875 -3.84375 C 34.394531 -2.101562 32.265625 -0.882812 29.796875 -0.1875 C 27.335938 0.5 24.820312 0.816406 22.25 0.765625 C 18.25 0.765625 14.71875 -0.0507812 11.65625 -1.6875 C 8.601562 -3.332031 6.21875 -5.617188 4.5 -8.546875 C 2.78125 -11.472656 1.921875 -14.863281 1.921875 -18.71875 C 1.921875 -22.925781 2.742188 -26.617188 4.390625 -29.796875 C 6.035156 -32.984375 8.359375 -35.472656 11.359375 -37.265625 C 14.359375 -39.066406 17.910156 -39.96875 22.015625 -39.96875 C 26.128906 -39.96875 29.625 -39.128906 32.5 -37.453125 C 35.375 -35.785156 37.566406 -33.453125 39.078125 -30.453125 C 40.585938 -27.453125 41.34375 -23.945312 41.34375 -19.9375 C 41.34375 -18.65625 41.085938 -17.566406 40.578125 -16.671875 C 40.066406 -15.773438 38.707031 -15.328125 36.5 -15.328125 L 10.859375 -15.328125 C 11.578125 -12.804688 12.9375 -10.765625 14.9375 -9.203125 C 16.9375 -7.640625 19.296875 -6.859375 22.015625 -6.859375 Z M 22.09375 -32.34375 C 19.125 -32.34375 16.632812 -31.40625 14.625 -29.53125 C 12.625 -27.65625 11.34375 -25.203125 10.78125 -22.171875 L 33.1875 -22.171875 C 32.925781 -25.203125 31.921875 -27.65625 30.171875 -29.53125 C 28.429688 -31.40625 25.738281 -32.34375 22.09375 -32.34375 Z M 22.09375 -32.34375 "/></g></g></g><g fill="#ffffff" fill-opacity="1"><g transform="translate(59.603927, 223.880745)"><g><path d="M 17.53125 -13.421875 C 19.03125 -13.421875 20.253906 -12.9375 21.203125 -11.96875 C 22.160156 -11.007812 22.640625 -9.585938 22.640625 -7.703125 L 22.640625 0 L 21.578125 0 L 21.578125 -7.625 C 21.578125 -9.195312 21.203125 -10.394531 20.453125 -11.21875 C 19.703125 -12.050781 18.671875 -12.46875 17.359375 -12.46875 C 16.003906 -12.46875 14.914062 -12 14.09375 -11.0625 C 13.269531 -10.125 12.859375 -8.769531 12.859375 -7 L 12.859375 0 L 11.796875 0 L 11.796875 -7.625 C 11.796875 -9.195312 11.421875 -10.394531 10.671875 -11.21875 C 9.921875 -12.050781 8.890625 -12.46875 7.578125 -12.46875 C 6.222656 -12.46875 5.132812 -12 4.3125 -11.0625 C 3.488281 -10.125 3.078125 -8.769531 3.078125 -7 L 3.078125 0 L 1.984375 0 L 1.984375 -13.15625 L 3.078125 -13.15625 L 3.078125 -10.296875 C 3.453125 -11.328125 4.050781 -12.101562 4.875 -12.625 C 5.707031 -13.15625 6.664062 -13.421875 7.75 -13.421875 C 8.945312 -13.421875 9.976562 -13.109375 10.84375 -12.484375 C 11.707031 -11.859375 12.300781 -10.941406 12.625 -9.734375 C 12.925781 -10.941406 13.519531 -11.859375 14.40625 -12.484375 C 15.300781 -13.109375 16.34375 -13.421875 17.53125 -13.421875 Z M 17.53125 -13.421875 "/></g></g></g><g fill="#ffffff" fill-opacity="1"><g transform="translate(83.221119, 223.880745)"><g><path d="M 1.3125 -6.59375 C 1.3125 -7.945312 1.582031 -9.128906 2.125 -10.140625 C 2.664062 -11.160156 3.414062 -11.945312 4.375 -12.5 C 5.332031 -13.050781 6.425781 -13.328125 7.65625 -13.328125 C 9.039062 -13.328125 10.21875 -12.984375 11.1875 -12.296875 C 12.15625 -11.617188 12.832031 -10.757812 13.21875 -9.71875 L 13.21875 -13.15625 L 14.3125 -13.15625 L 14.3125 0 L 13.21875 0 L 13.21875 -3.46875 C 12.832031 -2.394531 12.148438 -1.515625 11.171875 -0.828125 C 10.203125 -0.148438 9.03125 0.1875 7.65625 0.1875 C 6.425781 0.1875 5.332031 -0.0859375 4.375 -0.640625 C 3.414062 -1.203125 2.664062 -1.992188 2.125 -3.015625 C 1.582031 -4.035156 1.3125 -5.226562 1.3125 -6.59375 Z M 13.21875 -6.59375 C 13.21875 -7.738281 12.976562 -8.75 12.5 -9.625 C 12.03125 -10.507812 11.382812 -11.1875 10.5625 -11.65625 C 9.738281 -12.132812 8.816406 -12.375 7.796875 -12.375 C 6.734375 -12.375 5.796875 -12.144531 4.984375 -11.6875 C 4.179688 -11.226562 3.550781 -10.5625 3.09375 -9.6875 C 2.644531 -8.8125 2.421875 -7.78125 2.421875 -6.59375 C 2.421875 -5.394531 2.644531 -4.359375 3.09375 -3.484375 C 3.550781 -2.617188 4.1875 -1.953125 5 -1.484375 C 5.8125 -1.015625 6.742188 -0.78125 7.796875 -0.78125 C 8.816406 -0.78125 9.738281 -1.015625 10.5625 -1.484375 C 11.394531 -1.960938 12.046875 -2.640625 12.515625 -3.515625 C 12.984375 -4.398438 13.21875 -5.425781 13.21875 -6.59375 Z M 13.21875 -6.59375 "/></g></g></g><g fill="#ffffff" fill-opacity="1"><g transform="translate(98.602497, 223.880745)"><g><path d="M 3.078125 -10.4375 C 3.398438 -11.40625 3.972656 -12.144531 4.796875 -12.65625 C 5.617188 -13.164062 6.664062 -13.421875 7.9375 -13.421875 L 7.9375 -12.28125 L 7.578125 -12.28125 C 6.285156 -12.28125 5.210938 -11.910156 4.359375 -11.171875 C 3.503906 -10.441406 3.078125 -9.242188 3.078125 -7.578125 L 3.078125 0 L 1.984375 0 L 1.984375 -13.15625 L 3.078125 -13.15625 Z M 3.078125 -10.4375 "/></g></g></g><g fill="#ffffff" fill-opacity="1"><g transform="translate(106.159829, 223.880745)"><g><path d="M 8.8125 0 L 3.078125 -6.03125 L 3.078125 0 L 1.984375 0 L 1.984375 -17.921875 L 3.078125 -17.921875 L 3.078125 -7.1875 L 8.71875 -13.15625 L 10.25 -13.15625 L 3.875 -6.609375 L 10.3125 0 Z M 8.8125 0 "/></g></g></g><g fill="#ffffff" fill-opacity="1"><g transform="translate(115.824563, 223.880745)"><g><path d="M 13.828125 -7.453125 C 13.828125 -6.878906 13.8125 -6.445312 13.78125 -6.15625 L 2.421875 -6.15625 C 2.453125 -4.976562 2.707031 -3.984375 3.1875 -3.171875 C 3.675781 -2.367188 4.316406 -1.765625 5.109375 -1.359375 C 5.898438 -0.953125 6.765625 -0.75 7.703125 -0.75 C 8.992188 -0.75 10.070312 -1.066406 10.9375 -1.703125 C 11.8125 -2.347656 12.363281 -3.21875 12.59375 -4.3125 L 13.734375 -4.3125 C 13.472656 -2.96875 12.804688 -1.878906 11.734375 -1.046875 C 10.671875 -0.222656 9.328125 0.1875 7.703125 0.1875 C 6.472656 0.1875 5.375 -0.0820312 4.40625 -0.625 C 3.4375 -1.175781 2.675781 -1.960938 2.125 -2.984375 C 1.582031 -4.015625 1.3125 -5.21875 1.3125 -6.59375 C 1.3125 -7.957031 1.582031 -9.148438 2.125 -10.171875 C 2.664062 -11.191406 3.421875 -11.972656 4.390625 -12.515625 C 5.359375 -13.054688 6.460938 -13.328125 7.703125 -13.328125 C 8.960938 -13.328125 10.054688 -13.054688 10.984375 -12.515625 C 11.910156 -11.972656 12.613281 -11.253906 13.09375 -10.359375 C 13.582031 -9.460938 13.828125 -8.492188 13.828125 -7.453125 Z M 12.734375 -7.046875 C 12.785156 -8.210938 12.582031 -9.195312 12.125 -10 C 11.664062 -10.8125 11.039062 -11.414062 10.25 -11.8125 C 9.457031 -12.207031 8.597656 -12.40625 7.671875 -12.40625 C 6.753906 -12.40625 5.90625 -12.207031 5.125 -11.8125 C 4.34375 -11.414062 3.703125 -10.8125 3.203125 -10 C 2.710938 -9.195312 2.453125 -8.210938 2.421875 -7.046875 Z M 12.734375 -7.046875 "/></g></g></g><g fill="#ffffff" fill-opacity="1"><g transform="translate(130.043229, 223.880745)"><g><path d="M 3.609375 -12.203125 L 3.609375 -3.515625 C 3.609375 -2.546875 3.785156 -1.878906 4.140625 -1.515625 C 4.492188 -1.148438 5.125 -0.96875 6.03125 -0.96875 L 7.515625 -0.96875 L 7.515625 0 L 5.859375 0 C 4.710938 0 3.867188 -0.269531 3.328125 -0.8125 C 2.785156 -1.351562 2.515625 -2.253906 2.515625 -3.515625 L 2.515625 -12.203125 L 0.53125 -12.203125 L 0.53125 -13.15625 L 2.515625 -13.15625 L 2.515625 -16.5 L 3.609375 -16.5 L 3.609375 -13.15625 L 7.515625 -13.15625 L 7.515625 -12.203125 Z M 3.609375 -12.203125 "/></g></g></g><g fill="#ffffff" fill-opacity="1"><g transform="translate(137.527893, 223.880745)"><g><path d="M 2.546875 -16.078125 C 2.285156 -16.078125 2.066406 -16.160156 1.890625 -16.328125 C 1.710938 -16.503906 1.625 -16.738281 1.625 -17.03125 C 1.625 -17.300781 1.710938 -17.523438 1.890625 -17.703125 C 2.066406 -17.878906 2.285156 -17.96875 2.546875 -17.96875 C 2.804688 -17.96875 3.023438 -17.878906 3.203125 -17.703125 C 3.378906 -17.523438 3.46875 -17.300781 3.46875 -17.03125 C 3.46875 -16.738281 3.378906 -16.503906 3.203125 -16.328125 C 3.023438 -16.160156 2.804688 -16.078125 2.546875 -16.078125 Z M 3.078125 -13.15625 L 3.078125 0 L 1.984375 0 L 1.984375 -13.15625 Z M 3.078125 -13.15625 "/></g></g></g><g fill="#ffffff" fill-opacity="1"><g transform="translate(141.693997, 223.880745)"><g><path d="M 7.921875 -13.421875 C 9.484375 -13.421875 10.753906 -12.9375 11.734375 -11.96875 C 12.722656 -11.007812 13.21875 -9.585938 13.21875 -7.703125 L 13.21875 0 L 12.15625 0 L 12.15625 -7.625 C 12.15625 -9.195312 11.757812 -10.394531 10.96875 -11.21875 C 10.175781 -12.050781 9.101562 -12.46875 7.75 -12.46875 C 6.332031 -12.46875 5.195312 -12.015625 4.34375 -11.109375 C 3.5 -10.210938 3.078125 -8.875 3.078125 -7.09375 L 3.078125 0 L 1.984375 0 L 1.984375 -13.15625 L 3.078125 -13.15625 L 3.078125 -10.359375 C 3.453125 -11.347656 4.066406 -12.101562 4.921875 -12.625 C 5.785156 -13.15625 6.785156 -13.421875 7.921875 -13.421875 Z M 7.921875 -13.421875 "/></g></g></g><g fill="#ffffff" fill-opacity="1"><g transform="translate(155.86422, 223.880745)"><g><path d="M 7.65625 -13.328125 C 9.039062 -13.328125 10.21875 -12.988281 11.1875 -12.3125 C 12.15625 -11.644531 12.832031 -10.785156 13.21875 -9.734375 L 13.21875 -13.15625 L 14.3125 -13.15625 L 14.3125 0.40625 C 14.3125 1.625 14.046875 2.6875 13.515625 3.59375 C 12.984375 4.507812 12.265625 5.210938 11.359375 5.703125 C 10.453125 6.191406 9.441406 6.4375 8.328125 6.4375 C 6.679688 6.4375 5.316406 6.039062 4.234375 5.25 C 3.148438 4.457031 2.441406 3.394531 2.109375 2.0625 L 3.203125 2.0625 C 3.523438 3.113281 4.128906 3.945312 5.015625 4.5625 C 5.898438 5.1875 7.003906 5.5 8.328125 5.5 C 9.253906 5.5 10.085938 5.289062 10.828125 4.875 C 11.566406 4.46875 12.148438 3.878906 12.578125 3.109375 C 13.003906 2.347656 13.21875 1.445312 13.21875 0.40625 L 13.21875 -3.4375 C 12.832031 -2.382812 12.148438 -1.515625 11.171875 -0.828125 C 10.203125 -0.148438 9.03125 0.1875 7.65625 0.1875 C 6.425781 0.1875 5.332031 -0.0859375 4.375 -0.640625 C 3.414062 -1.203125 2.664062 -1.992188 2.125 -3.015625 C 1.582031 -4.035156 1.3125 -5.226562 1.3125 -6.59375 C 1.3125 -7.945312 1.582031 -9.128906 2.125 -10.140625 C 2.664062 -11.160156 3.414062 -11.945312 4.375 -12.5 C 5.332031 -13.050781 6.425781 -13.328125 7.65625 -13.328125 Z M 13.21875 -6.59375 C 13.21875 -7.738281 12.976562 -8.75 12.5 -9.625 C 12.03125 -10.507812 11.382812 -11.1875 10.5625 -11.65625 C 9.738281 -12.132812 8.816406 -12.375 7.796875 -12.375 C 6.734375 -12.375 5.796875 -12.144531 4.984375 -11.6875 C 4.179688 -11.226562 3.550781 -10.5625 3.09375 -9.6875 C 2.644531 -8.8125 2.421875 -7.78125 2.421875 -6.59375 C 2.421875 -5.394531 2.644531 -4.359375 3.09375 -3.484375 C 3.550781 -2.617188 4.1875 -1.953125 5 -1.484375 C 5.8125 -1.015625 6.742188 -0.78125 7.796875 -0.78125 C 8.816406 -0.78125 9.738281 -1.015625 10.5625 -1.484375 C 11.394531 -1.960938 12.046875 -2.640625 12.515625 -3.515625 C 12.984375 -4.398438 13.21875 -5.425781 13.21875 -6.59375 Z M 13.21875 -6.59375 "/></g></g></g><g fill="#ffffff" fill-opacity="1"><g transform="translate(171.245596, 223.880745)"><g/></g></g><g fill="#ffffff" fill-opacity="1"><g transform="translate(177.155765, 223.880745)"><g><path d="M 3.609375 -12.203125 L 3.609375 -3.515625 C 3.609375 -2.546875 3.785156 -1.878906 4.140625 -1.515625 C 4.492188 -1.148438 5.125 -0.96875 6.03125 -0.96875 L 7.515625 -0.96875 L 7.515625 0 L 5.859375 0 C 4.710938 0 3.867188 -0.269531 3.328125 -0.8125 C 2.785156 -1.351562 2.515625 -2.253906 2.515625 -3.515625 L 2.515625 -12.203125 L 0.53125 -12.203125 L 0.53125 -13.15625 L 2.515625 -13.15625 L 2.515625 -16.5 L 3.609375 -16.5 L 3.609375 -13.15625 L 7.515625 -13.15625 L 7.515625 -12.203125 Z M 3.609375 -12.203125 "/></g></g></g><g fill="#ffffff" fill-opacity="1"><g transform="translate(184.640428, 223.880745)"><g><path d="M 7.9375 -13.421875 C 9.488281 -13.421875 10.753906 -12.9375 11.734375 -11.96875 C 12.722656 -11.007812 13.21875 -9.585938 13.21875 -7.703125 L 13.21875 0 L 12.15625 0 L 12.15625 -7.625 C 12.15625 -9.195312 11.757812 -10.394531 10.96875 -11.21875 C 10.175781 -12.050781 9.101562 -12.46875 7.75 -12.46875 C 6.332031 -12.46875 5.195312 -12.015625 4.34375 -11.109375 C 3.5 -10.210938 3.078125 -8.875 3.078125 -7.09375 L 3.078125 0 L 1.984375 0 L 1.984375 -17.921875 L 3.078125 -17.921875 L 3.078125 -10.359375 C 3.453125 -11.347656 4.070312 -12.101562 4.9375 -12.625 C 5.8125 -13.15625 6.8125 -13.421875 7.9375 -13.421875 Z M 7.9375 -13.421875 "/></g></g></g><g fill="#ffffff" fill-opacity="1"><g transform="translate(198.810651, 223.880745)"><g><path d="M 1.3125 -6.59375 C 1.3125 -7.945312 1.582031 -9.128906 2.125 -10.140625 C 2.664062 -11.160156 3.414062 -11.945312 4.375 -12.5 C 5.332031 -13.050781 6.425781 -13.328125 7.65625 -13.328125 C 9.039062 -13.328125 10.21875 -12.984375 11.1875 -12.296875 C 12.15625 -11.617188 12.832031 -10.757812 13.21875 -9.71875 L 13.21875 -13.15625 L 14.3125 -13.15625 L 14.3125 0 L 13.21875 0 L 13.21875 -3.46875 C 12.832031 -2.394531 12.148438 -1.515625 11.171875 -0.828125 C 10.203125 -0.148438 9.03125 0.1875 7.65625 0.1875 C 6.425781 0.1875 5.332031 -0.0859375 4.375 -0.640625 C 3.414062 -1.203125 2.664062 -1.992188 2.125 -3.015625 C 1.582031 -4.035156 1.3125 -5.226562 1.3125 -6.59375 Z M 13.21875 -6.59375 C 13.21875 -7.738281 12.976562 -8.75 12.5 -9.625 C 12.03125 -10.507812 11.382812 -11.1875 10.5625 -11.65625 C 9.738281 -12.132812 8.816406 -12.375 7.796875 -12.375 C 6.734375 -12.375 5.796875 -12.144531 4.984375 -11.6875 C 4.179688 -11.226562 3.550781 -10.5625 3.09375 -9.6875 C 2.644531 -8.8125 2.421875 -7.78125 2.421875 -6.59375 C 2.421875 -5.394531 2.644531 -4.359375 3.09375 -3.484375 C 3.550781 -2.617188 4.1875 -1.953125 5 -1.484375 C 5.8125 -1.015625 6.742188 -0.78125 7.796875 -0.78125 C 8.816406 -0.78125 9.738281 -1.015625 10.5625 -1.484375 C 11.394531 -1.960938 12.046875 -2.640625 12.515625 -3.515625 C 12.984375 -4.398438 13.21875 -5.425781 13.21875 -6.59375 Z M 13.21875 -6.59375 "/></g></g></g><g fill="#ffffff" fill-opacity="1"><g transform="translate(214.192027, 223.880745)"><g><path d="M 3.609375 -12.203125 L 3.609375 -3.515625 C 3.609375 -2.546875 3.785156 -1.878906 4.140625 -1.515625 C 4.492188 -1.148438 5.125 -0.96875 6.03125 -0.96875 L 7.515625 -0.96875 L 7.515625 0 L 5.859375 0 C 4.710938 0 3.867188 -0.269531 3.328125 -0.8125 C 2.785156 -1.351562 2.515625 -2.253906 2.515625 -3.515625 L 2.515625 -12.203125 L 0.53125 -12.203125 L 0.53125 -13.15625 L 2.515625 -13.15625 L 2.515625 -16.5 L 3.609375 -16.5 L 3.609375 -13.15625 L 7.515625 -13.15625 L 7.515625 -12.203125 Z M 3.609375 -12.203125 "/></g></g></g><g fill="#ffffff" fill-opacity="1"><g transform="translate(221.676699, 223.880745)"><g/></g></g><g fill="#ffffff" fill-opacity="1"><g transform="translate(227.586868, 223.880745)"><g><path d="M 17.53125 -13.421875 C 19.03125 -13.421875 20.253906 -12.9375 21.203125 -11.96875 C 22.160156 -11.007812 22.640625 -9.585938 22.640625 -7.703125 L 22.640625 0 L 21.578125 0 L 21.578125 -7.625 C 21.578125 -9.195312 21.203125 -10.394531 20.453125 -11.21875 C 19.703125 -12.050781 18.671875 -12.46875 17.359375 -12.46875 C 16.003906 -12.46875 14.914062 -12 14.09375 -11.0625 C 13.269531 -10.125 12.859375 -8.769531 12.859375 -7 L 12.859375 0 L 11.796875 0 L 11.796875 -7.625 C 11.796875 -9.195312 11.421875 -10.394531 10.671875 -11.21875 C 9.921875 -12.050781 8.890625 -12.46875 7.578125 -12.46875 C 6.222656 -12.46875 5.132812 -12 4.3125 -11.0625 C 3.488281 -10.125 3.078125 -8.769531 3.078125 -7 L 3.078125 0 L 1.984375 0 L 1.984375 -13.15625 L 3.078125 -13.15625 L 3.078125 -10.296875 C 3.453125 -11.328125 4.050781 -12.101562 4.875 -12.625 C 5.707031 -13.15625 6.664062 -13.421875 7.75 -13.421875 C 8.945312 -13.421875 9.976562 -13.109375 10.84375 -12.484375 C 11.707031 -11.859375 12.300781 -10.941406 12.625 -9.734375 C 12.925781 -10.941406 13.519531 -11.859375 14.40625 -12.484375 C 15.300781 -13.109375 16.34375 -13.421875 17.53125 -13.421875 Z M 17.53125 -13.421875 "/></g></g></g><g fill="#ffffff" fill-opacity="1"><g transform="translate(251.204058, 223.880745)"><g><path d="M 1.3125 -6.59375 C 1.3125 -7.945312 1.582031 -9.128906 2.125 -10.140625 C 2.664062 -11.160156 3.414062 -11.945312 4.375 -12.5 C 5.332031 -13.050781 6.425781 -13.328125 7.65625 -13.328125 C 9.039062 -13.328125 10.21875 -12.984375 11.1875 -12.296875 C 12.15625 -11.617188 12.832031 -10.757812 13.21875 -9.71875 L 13.21875 -13.15625 L 14.3125 -13.15625 L 14.3125 0 L 13.21875 0 L 13.21875 -3.46875 C 12.832031 -2.394531 12.148438 -1.515625 11.171875 -0.828125 C 10.203125 -0.148438 9.03125 0.1875 7.65625 0.1875 C 6.425781 0.1875 5.332031 -0.0859375 4.375 -0.640625 C 3.414062 -1.203125 2.664062 -1.992188 2.125 -3.015625 C 1.582031 -4.035156 1.3125 -5.226562 1.3125 -6.59375 Z M 13.21875 -6.59375 C 13.21875 -7.738281 12.976562 -8.75 12.5 -9.625 C 12.03125 -10.507812 11.382812 -11.1875 10.5625 -11.65625 C 9.738281 -12.132812 8.816406 -12.375 7.796875 -12.375 C 6.734375 -12.375 5.796875 -12.144531 4.984375 -11.6875 C 4.179688 -11.226562 3.550781 -10.5625 3.09375 -9.6875 C 2.644531 -8.8125 2.421875 -7.78125 2.421875 -6.59375 C 2.421875 -5.394531 2.644531 -4.359375 3.09375 -3.484375 C 3.550781 -2.617188 4.1875 -1.953125 5 -1.484375 C 5.8125 -1.015625 6.742188 -0.78125 7.796875 -0.78125 C 8.816406 -0.78125 9.738281 -1.015625 10.5625 -1.484375 C 11.394531 -1.960938 12.046875 -2.640625 12.515625 -3.515625 C 12.984375 -4.398438 13.21875 -5.425781 13.21875 -6.59375 Z M 13.21875 -6.59375 "/></g></g></g><g fill="#ffffff" fill-opacity="1"><g transform="translate(266.585434, 223.880745)"><g><path d="M 3.609375 -12.203125 L 3.609375 -3.515625 C 3.609375 -2.546875 3.785156 -1.878906 4.140625 -1.515625 C 4.492188 -1.148438 5.125 -0.96875 6.03125 -0.96875 L 7.515625 -0.96875 L 7.515625 0 L 5.859375 0 C 4.710938 0 3.867188 -0.269531 3.328125 -0.8125 C 2.785156 -1.351562 2.515625 -2.253906 2.515625 -3.515625 L 2.515625 -12.203125 L 0.53125 -12.203125 L 0.53125 -13.15625 L 2.515625 -13.15625 L 2.515625 -16.5 L 3.609375 -16.5 L 3.609375 -13.15625 L 7.515625 -13.15625 L 7.515625 -12.203125 Z M 3.609375 -12.203125 "/></g></g></g><g fill="#ffffff" fill-opacity="1"><g transform="translate(274.070097, 223.880745)"><g><path d="M 3.609375 -12.203125 L 3.609375 -3.515625 C 3.609375 -2.546875 3.785156 -1.878906 4.140625 -1.515625 C 4.492188 -1.148438 5.125 -0.96875 6.03125 -0.96875 L 7.515625 -0.96875 L 7.515625 0 L 5.859375 0 C 4.710938 0 3.867188 -0.269531 3.328125 -0.8125 C 2.785156 -1.351562 2.515625 -2.253906 2.515625 -3.515625 L 2.515625 -12.203125 L 0.53125 -12.203125 L 0.53125 -13.15625 L 2.515625 -13.15625 L 2.515625 -16.5 L 3.609375 -16.5 L 3.609375 -13.15625 L 7.515625 -13.15625 L 7.515625 -12.203125 Z M 3.609375 -12.203125 "/></g></g></g><g fill="#ffffff" fill-opacity="1"><g transform="translate(281.55476, 223.880745)"><g><path d="M 13.828125 -7.453125 C 13.828125 -6.878906 13.8125 -6.445312 13.78125 -6.15625 L 2.421875 -6.15625 C 2.453125 -4.976562 2.707031 -3.984375 3.1875 -3.171875 C 3.675781 -2.367188 4.316406 -1.765625 5.109375 -1.359375 C 5.898438 -0.953125 6.765625 -0.75 7.703125 -0.75 C 8.992188 -0.75 10.070312 -1.066406 10.9375 -1.703125 C 11.8125 -2.347656 12.363281 -3.21875 12.59375 -4.3125 L 13.734375 -4.3125 C 13.472656 -2.96875 12.804688 -1.878906 11.734375 -1.046875 C 10.671875 -0.222656 9.328125 0.1875 7.703125 0.1875 C 6.472656 0.1875 5.375 -0.0820312 4.40625 -0.625 C 3.4375 -1.175781 2.675781 -1.960938 2.125 -2.984375 C 1.582031 -4.015625 1.3125 -5.21875 1.3125 -6.59375 C 1.3125 -7.957031 1.582031 -9.148438 2.125 -10.171875 C 2.664062 -11.191406 3.421875 -11.972656 4.390625 -12.515625 C 5.359375 -13.054688 6.460938 -13.328125 7.703125 -13.328125 C 8.960938 -13.328125 10.054688 -13.054688 10.984375 -12.515625 C 11.910156 -11.972656 12.613281 -11.253906 13.09375 -10.359375 C 13.582031 -9.460938 13.828125 -8.492188 13.828125 -7.453125 Z M 12.734375 -7.046875 C 12.785156 -8.210938 12.582031 -9.195312 12.125 -10 C 11.664062 -10.8125 11.039062 -11.414062 10.25 -11.8125 C 9.457031 -12.207031 8.597656 -12.40625 7.671875 -12.40625 C 6.753906 -12.40625 5.90625 -12.207031 5.125 -11.8125 C 4.34375 -11.414062 3.703125 -10.8125 3.203125 -10 C 2.710938 -9.195312 2.453125 -8.210938 2.421875 -7.046875 Z M 12.734375 -7.046875 "/></g></g></g><g fill="#ffffff" fill-opacity="1"><g transform="translate(295.773426, 223.880745)"><g><path d="M 3.078125 -10.4375 C 3.398438 -11.40625 3.972656 -12.144531 4.796875 -12.65625 C 5.617188 -13.164062 6.664062 -13.421875 7.9375 -13.421875 L 7.9375 -12.28125 L 7.578125 -12.28125 C 6.285156 -12.28125 5.210938 -11.910156 4.359375 -11.171875 C 3.503906 -10.441406 3.078125 -9.242188 3.078125 -7.578125 L 3.078125 0 L 1.984375 0 L 1.984375 -13.15625 L 3.078125 -13.15625 Z M 3.078125 -10.4375 "/></g></g></g><g fill="#ffffff" fill-opacity="1"><g transform="translate(303.330754, 223.880745)"><g><path d="M 6.375 0.1875 C 4.90625 0.1875 3.703125 -0.132812 2.765625 -0.78125 C 1.835938 -1.425781 1.320312 -2.34375 1.21875 -3.53125 L 2.328125 -3.53125 C 2.410156 -2.675781 2.800781 -2 3.5 -1.5 C 4.195312 -1 5.15625 -0.75 6.375 -0.75 C 7.375 -0.75 8.164062 -1.003906 8.75 -1.515625 C 9.34375 -2.023438 9.640625 -2.648438 9.640625 -3.390625 C 9.640625 -3.910156 9.476562 -4.332031 9.15625 -4.65625 C 8.84375 -4.988281 8.453125 -5.242188 7.984375 -5.421875 C 7.523438 -5.597656 6.890625 -5.789062 6.078125 -6 C 5.109375 -6.257812 4.320312 -6.515625 3.71875 -6.765625 C 3.125 -7.015625 2.617188 -7.390625 2.203125 -7.890625 C 1.785156 -8.390625 1.578125 -9.0625 1.578125 -9.90625 C 1.578125 -10.519531 1.757812 -11.085938 2.125 -11.609375 C 2.5 -12.140625 3.015625 -12.554688 3.671875 -12.859375 C 4.335938 -13.171875 5.09375 -13.328125 5.9375 -13.328125 C 7.3125 -13.328125 8.421875 -12.984375 9.265625 -12.296875 C 10.109375 -11.609375 10.5625 -10.660156 10.625 -9.453125 L 9.546875 -9.453125 C 9.492188 -10.316406 9.148438 -11.023438 8.515625 -11.578125 C 7.890625 -12.128906 7.019531 -12.40625 5.90625 -12.40625 C 4.96875 -12.40625 4.191406 -12.160156 3.578125 -11.671875 C 2.972656 -11.191406 2.671875 -10.601562 2.671875 -9.90625 C 2.671875 -9.289062 2.84375 -8.789062 3.1875 -8.40625 C 3.53125 -8.03125 3.957031 -7.738281 4.46875 -7.53125 C 4.976562 -7.332031 5.648438 -7.125 6.484375 -6.90625 C 7.410156 -6.664062 8.148438 -6.425781 8.703125 -6.1875 C 9.265625 -5.957031 9.738281 -5.617188 10.125 -5.171875 C 10.507812 -4.722656 10.703125 -4.128906 10.703125 -3.390625 C 10.703125 -2.710938 10.515625 -2.097656 10.140625 -1.546875 C 9.773438 -1.003906 9.257812 -0.578125 8.59375 -0.265625 C 7.9375 0.0351562 7.195312 0.1875 6.375 0.1875 Z M 6.375 0.1875 "/></g></g></g></svg>